sumo_dl_3
version=1
nRows=22
nColumns=46
inDegrees=yes
endheader
time	ground_force3_vx	ground_force3_vy	ground_force3_vz	ground_force3_px	ground_force3_py	ground_force3_pz	ground_torque3_x	ground_torque3_y	ground_torque3_z	ground_force5_vx	ground_force5_vy	ground_force5_vz	ground_force5_px	ground_force5_py	ground_force5_pz	ground_torque5_x	ground_torque5_y	ground_torque5_z	ground_force4_vx	ground_force4_vy	ground_force4_vz	ground_force4_px	ground_force4_py	ground_force4_pz	ground_torque4_x	ground_torque4_y	ground_torque4_z	ground_force1_vx	ground_force1_vy	ground_force1_vz	ground_force1_px	ground_force1_py	ground_force1_pz	ground_torque1_x	ground_torque1_y	ground_torque1_z	ground_force2_vx	ground_force2_vy	ground_force2_vz	ground_force2_px	ground_force2_py	ground_force2_pz	ground_torque2_x	ground_torque2_y	ground_torque2_z
12.610000	9.831439	470.894775	-189.902054	0.130979	0.000000	-0.433399	0.000010	0.447295	-0.000003	-9.191271	481.334442	195.300995	0.164843	0.000000	-1.456862	0.000024	2.459877	0.000004	-1.613792	-9.660989	2.277776	0.200000	0.000000	-0.900000	-0.000000	0.031590	-0.000000	-0.000000	-0.000000	0.000000	0.200000	0.000000	0.920000	0.000000	0.000000	0.000000	-2.028939	-113.717888	-0.414617	0.200000	0.000000	0.320000	0.000003	1.379068	-0.000000	
12.611000	8.705329	470.574951	-190.708038	0.129997	0.000000	-0.432793	0.000017	0.192627	-0.000000	-9.351463	479.740021	196.264542	0.164988	0.000000	-1.455991	0.000058	2.276646	0.000003	-1.291707	-10.618971	2.275737	0.200000	0.000000	-0.900000	-0.000000	-0.110128	-0.000000	-0.000000	-0.000000	0.000000	0.200000	0.000000	0.920000	0.000000	0.000000	0.000000	-3.151755	-113.720375	0.070550	0.200000	0.000000	0.320000	0.000003	1.442472	-0.000000	
12.612000	9.348822	469.625885	-191.030640	0.129890	0.000000	-0.433542	0.000009	0.250142	-0.000003	-9.350445	480.376465	196.908707	0.164678	0.000000	-1.456752	0.000049	2.393096	0.000006	-1.613792	-9.656607	2.597825	0.200000	0.000000	-0.900000	-0.000000	-0.045589	-0.000000	-0.000000	-0.000000	0.000000	0.200000	0.000000	0.920000	0.000000	0.000000	0.000000	-2.508090	-112.132088	0.551647	0.200000	0.000000	0.320000	0.000003	1.564824	-0.000000	
12.613000	9.670566	470.257385	-190.708710	0.129960	0.000000	-0.432746	0.000021	0.173419	-0.000001	-8.867825	479.735016	196.747833	0.164384	0.000000	-1.455966	0.000057	2.471723	0.000004	-2.103097	-10.931469	2.275737	0.200000	0.000000	-0.900000	-0.000000	-0.207989	-0.000000	-0.899756	5.013311	-0.252756	0.221558	0.000000	0.980893	0.000000	-0.022249	0.000000	-2.346963	-114.994728	-0.252216	0.200000	0.000000	0.320000	0.000003	1.578050	-0.000000	
12.614000	10.314055	468.994690	-190.063522	0.130091	0.000000	-0.433938	0.000017	0.210301	0.000001	-9.672871	481.650360	196.586288	0.164763	0.000000	-1.456144	0.000010	2.293844	-0.000001	-2.103097	-8.372319	2.437291	0.200000	0.000000	-0.900000	-0.000000	-0.188602	-0.000000	-1.549066	5.326720	0.227149	0.194178	0.000000	1.065532	-0.000000	-0.191834	0.000000	-1.865273	-112.768837	-0.091851	0.200000	0.000000	0.320000	0.000003	1.565407	-0.000000	
12.615000	9.348823	471.836975	-190.385773	0.130216	0.000000	-0.432099	0.000007	0.460986	0.000001	-9.351974	482.929230	196.104675	0.165354	0.000000	-1.456787	0.000065	2.367574	0.000001	-2.589314	-8.372991	2.277776	0.200000	0.000000	-0.900000	-0.000000	-0.163514	-0.000000	-0.739147	5.010223	-0.899138	0.232338	0.000000	1.075866	-0.000000	-0.039999	0.000000	-2.670911	-110.223030	-0.091851	0.200000	0.000000	0.320000	0.000002	1.404279	-0.000000	
12.616000	9.509692	470.885956	-190.547592	0.129587	0.000000	-0.431367	0.000019	0.032388	0.000002	-9.512676	481.330505	195.462204	0.164523	0.000000	-1.455855	-0.000000	2.498244	-0.000003	-2.425183	-8.052429	1.952629	0.200000	0.000000	-0.900000	-0.000000	-0.182345	-0.000000	-0.739146	5.954845	0.227998	0.211461	0.000000	1.048994	-0.000000	-0.071498	0.000000	-2.347809	-109.587959	-0.896732	0.200000	0.000000	0.320000	0.000002	1.552622	-0.000000	
12.617000	9.670569	470.886261	-190.546570	0.129631	0.000000	-0.431653	0.000018	0.293902	0.000008	-11.121748	485.791626	195.783279	0.164651	0.000000	-1.456727	0.000031	2.320703	0.000009	-2.586226	-7.096795	1.148937	0.200000	0.000000	-0.900000	-0.000000	-0.092466	-0.000000	-1.385880	5.639225	-1.059672	0.224539	0.000000	1.056040	-0.000000	-0.071247	0.000000	-3.151755	-109.264481	-0.736366	0.200000	0.000000	0.320000	0.000002	1.539302	-0.000000	
12.618000	9.027075	471.832397	-191.191757	0.129708	0.000000	-0.432424	0.000009	0.469651	-0.000002	-9.672871	485.476349	196.265213	0.164848	0.000000	-1.457018	0.000038	2.312849	0.000008	-2.425183	-6.447584	1.631560	0.200000	0.000000	-0.900000	-0.000000	-0.143816	-0.000000	-1.224411	5.008947	0.228847	0.164902	0.000000	1.088057	-0.000000	-0.177786	0.000000	-3.151755	-110.539215	-1.058115	0.200000	0.000000	0.320000	0.000003	1.539424	-0.000000	
12.619000	8.866202	472.148956	-190.708374	0.129361	0.000000	-0.430977	0.000013	0.381266	-0.000003	-9.995806	483.881927	195.943466	0.164482	0.000000	-1.456295	0.000056	2.442376	0.000005	-2.265685	-6.455673	2.117242	0.200000	0.000000	-0.900000	-0.000000	-0.143941	-0.000000	-2.032614	4.698433	-0.737754	0.187557	0.000000	0.993480	-0.000000	-0.002938	0.000000	-2.829499	-111.489998	0.070550	0.200000	0.000000	0.320000	0.000003	1.506923	-0.000000	
12.620000	9.670569	471.200897	-190.546570	0.129461	0.000000	-0.431965	0.000002	0.258567	0.000006	-10.156509	482.288818	196.586960	0.164757	0.000000	-1.456203	0.000025	2.448210	0.000002	-1.454294	-8.375355	1.792094	0.200000	0.000000	-0.900000	-0.000000	-0.162154	-0.000000	-1.708817	5.327243	-0.577220	0.216505	0.000000	1.082629	-0.000000	-0.093343	-0.000000	-2.508090	-109.261032	-0.896732	0.200000	0.000000	0.320000	0.000002	1.584678	-0.000000	
12.621000	9.348823	472.776245	-190.708374	0.129386	0.000000	-0.431345	0.000025	0.222957	-0.000004	-10.157019	486.747589	195.943802	0.164601	0.000000	-1.456179	0.000010	2.481600	0.000002	-2.589314	-9.015147	1.953648	0.200000	0.000000	-0.900000	-0.000000	-0.240938	-0.000000	-2.034331	5.955369	-0.578069	0.223793	0.000000	1.063602	0.000000	-0.194407	-0.000000	-3.313729	-108.952072	-1.056079	0.200000	0.000000	0.320000	0.000002	1.365697	-0.000000	
12.622000	7.900965	476.251984	-190.869171	0.129651	0.000000	-0.430464	0.000028	0.485153	0.000006	-10.477917	485.795258	196.104675	0.164750	0.000000	-1.455947	-0.000004	2.332353	0.000000	-2.429816	-7.092757	1.470006	0.200000	0.000000	-0.900000	-0.000000	-0.357381	-0.000000	-1.223552	5.639445	-0.898289	0.166237	0.000000	1.033955	0.000000	-0.065375	0.000000	-2.832885	-110.219048	-0.896732	0.200000	0.000000	0.320000	0.000002	1.327382	-0.000000	
12.623000	9.670566	471.515167	-190.708374	0.129384	0.000000	-0.431454	0.000019	0.307972	-0.000007	-10.317213	485.474731	196.265213	0.164456	0.000000	-1.457031	0.000068	2.426719	0.000003	-2.587770	-8.694585	1.793114	0.200000	0.000000	-0.900000	-0.000000	-0.156947	-0.000000	-1.708817	5.640454	-0.416686	0.174955	0.000000	1.038748	-0.000001	-0.019057	0.000000	-2.670064	-110.217796	-1.059133	0.200000	0.000000	0.320000	0.000002	1.546147	-0.000000	
12.624000	9.992312	469.618347	-190.385101	0.128804	0.000000	-0.431957	0.000006	0.250492	-0.000002	-10.154982	484.839905	197.069244	0.165110	0.000000	-1.456128	0.000047	2.221128	0.000009	-1.781012	-8.374350	1.953648	0.200000	0.000000	-0.900000	-0.000000	-0.272528	-0.000000	-0.000000	-0.000000	0.000000	0.200000	0.000000	0.920000	0.000000	0.000000	0.000000	-2.509783	-112.126099	-0.092868	0.200000	0.000000	0.320000	0.000003	1.475115	-0.000000	
12.625000	9.027076	469.932312	-189.901367	0.128588	0.000000	-0.431078	0.000005	0.488562	0.000001	-9.028019	482.924255	197.068909	0.164902	0.000000	-1.456711	0.000068	2.245814	0.000005	-1.781012	-10.297067	2.114183	0.200000	0.000000	-0.900000	-0.000000	-0.291792	-0.000000	-0.000000	-0.000000	0.000000	0.200000	0.000000	0.920000	0.000000	0.000000	0.000000	-2.348655	-114.032791	-0.412582	0.200000	0.000000	0.320000	0.000003	1.430242	-0.000000	
12.626000	10.957549	467.721893	-190.385437	0.128634	0.000000	-0.432536	0.000012	0.045711	0.000002	-9.673380	482.607361	197.872589	0.164932	0.000000	-1.455727	0.000007	2.443391	0.000005	-2.265685	-10.296398	2.600885	0.200000	0.000000	-0.900000	-0.000000	-0.124432	-0.000000	-0.000000	-0.000000	0.000000	0.200000	0.000000	0.920000	0.000000	0.000000	0.000000	-1.706684	-113.083191	-0.092868	0.200000	0.000000	0.320000	0.000003	1.443397	-0.000000	
12.627000	10.314055	467.404602	-189.901031	0.127964	0.000000	-0.431243	0.000015	-0.083216	-0.000002	-9.510639	482.925262	197.711380	0.164568	0.000000	-1.455660	0.000057	2.232911	0.000003	-1.615336	-9.653914	2.115203	0.200000	0.000000	-0.900000	-0.000000	-0.091173	-0.000000	-0.000000	-0.000000	0.000000	0.200000	0.000000	0.920000	0.000000	0.000000	0.000000	-2.026400	-112.763008	0.230916	0.200000	0.000000	0.320000	0.000003	1.494449	-0.000000	
12.628000	10.635806	468.034851	-189.901031	0.128172	0.000000	-0.431916	0.000013	0.164296	0.000003	-9.994787	483.563049	197.389633	0.164551	0.000000	-1.456000	0.000050	2.329263	-0.000003	-1.942055	-10.297403	2.277776	0.200000	0.000000	-0.900000	-0.000000	-0.162896	-0.000000	-1.066378	5.327435	-0.417535	0.197632	0.000000	0.987610	-0.000000	-0.228371	0.000000	-1.865273	-113.079636	0.228881	0.200000	0.000000	0.320000	0.000003	1.603894	-0.000000	
12.629000	10.474929	467.087433	-189.578781	0.128058	0.000000	-0.431740	0.000016	0.053545	0.000000	-9.672361	482.922913	197.711044	0.164378	0.000000	-1.455917	0.000032	2.323859	0.000003	-1.293251	-10.618979	1.952629	0.200000	0.000000	-0.900000	-0.000000	-0.213627	-0.000000	-0.000000	-0.000000	0.000000	0.200000	0.000000	0.920000	0.000000	0.000000	0.000000	-2.508937	-114.352432	0.388229	0.200000	0.000000	0.320000	0.000003	1.597128	-0.000000	
12.630000	9.027076	467.717957	-190.062500	0.127705	0.000000	-0.432136	0.000010	0.190312	0.000001	-9.350445	486.749939	197.710709	0.164863	0.000000	-1.455754	0.000015	2.201925	0.000009	-1.455838	-10.297070	2.274717	0.200000	0.000000	-0.900000	-0.000000	-0.246022	-0.000000	-1.063802	5.643350	-0.255303	0.192062	0.000000	1.040783	-0.000000	-0.149518	0.000000	-2.508937	-111.173912	0.390264	0.200000	0.000000	0.320000	0.000003	1.519908	-0.000000	
12.631000	10.153186	468.350739	-190.062500	0.128095	0.000000	-0.431971	0.000015	0.149494	-0.000005	-10.154982	486.748291	198.514725	0.164248	0.000000	-1.456938	0.000024	2.354818	0.000003	-2.267229	-10.293373	2.598845	0.200000	0.000000	-0.900000	-0.000000	-0.266459	-0.000000	-0.000000	-0.000000	0.000000	0.200000	0.000000	0.920000	0.000000	0.000000	0.000000	-2.189220	-113.708290	0.070550	0.200000	0.000000	0.320000	0.000003	1.314416	-0.000000	
